<?xml version="1.0" encoding="UTF-8"?><svg id="b" xmlns="http://www.w3.org/2000/svg" xmlns:xlink="http://www.w3.org/1999/xlink" viewBox="0 0 206.24 241.12"><defs><style>.f{fill:url(#d);}.f,.g,.h,.i,.j{fill-rule:evenodd;}.f,.g,.h,.i,.j,.k,.l,.m{stroke-width:0px;}.g{fill:url(#e);}.h,.k{fill:#55504d;}.i{fill:#fff;}.j,.m{fill:#f0532d;}.l{fill:#55514e;}</style><radialGradient id="d" cx="159.51" cy="83.93" fx="159.51" fy="83.93" r="11.82" gradientTransform="translate(314.34 -90.31) rotate(84.81) scale(1 2.03)" gradientUnits="userSpaceOnUse"><stop offset=".17" stop-color="#613428"/><stop offset=".26" stop-color="#823b29"/><stop offset=".39" stop-color="#a9432a"/><stop offset=".52" stop-color="#c84a2b"/><stop offset=".64" stop-color="#de4f2c"/><stop offset=".76" stop-color="#eb522c"/><stop offset=".87" stop-color="#f0532d"/></radialGradient><radialGradient id="e" cx="170.91" cy="62.2" fx="170.91" fy="62.2" r="11.92" gradientTransform="translate(-17.88 204.24) rotate(-80.62) scale(1 2.62)" gradientUnits="userSpaceOnUse"><stop offset=".12" stop-color="#613428"/><stop offset=".19" stop-color="#823b29"/><stop offset=".29" stop-color="#a9432a"/><stop offset=".39" stop-color="#c84a2b"/><stop offset=".49" stop-color="#de4f2c"/><stop offset=".58" stop-color="#eb522c"/><stop offset=".67" stop-color="#f0532d"/></radialGradient></defs><g id="c"><path class="l" d="M27.78,223.78c-3.11,2.07-6.98,3.11-11.62,3.11H2.24l1.62-1.43c.33-.37.58-.93.75-1.67.25-.83.37-1.92.37-3.29v-27.36c0-.74-.04-1.39-.12-1.92-.08-.54-.21-1.1-.37-1.67-.29-1.08-1.04-1.96-2.24-2.67h14.85c3.4,0,6.25.74,8.57,2.23s3.48,3.57,3.48,6.25c0,3.92-1.95,6.62-5.84,8.11,3.15.66,5.55,2.04,7.21,4.13,1.66,2.09,2.49,4.61,2.49,7.55-.37,3.69-2.11,6.57-5.22,8.64ZM20.63,192.08c-1.41-1.03-3.19-1.55-5.34-1.55l-4.04.43v12h2.18c1.45,0,2.96-.23,4.54-.68,1.37-.54,2.51-1.28,3.42-2.23.91-.95,1.37-2.1,1.37-3.46,0-1.98-.71-3.48-2.11-4.51ZM24.86,210.54c-.96-1.24-2.28-2.22-3.98-2.92-1.7-.62-3.44-.93-5.22-.93l-4.41.19v15.1l5.22.5c3.27,0,5.75-.69,7.43-2.08,1.68-1.39,2.52-3.18,2.52-5.38,0-1.82-.52-3.31-1.55-4.47Z"/><path class="l" d="M51.27,202.71c-.58,0-1.41.12-2.49.38-2.53.79-3.79,3.37-3.79,7.75v10.87l.19,1.62.25,1.37c.29.75.93,1.4,1.93,1.94v.25h-10.13v-.25c.99-.5,1.62-1.12,1.86-1.86.25-.75.37-1.72.37-2.92v-17.46c0-1.57-.12-2.71-.37-3.42-.33-.75-.95-1.39-1.86-1.93v-.25h1.55l2.55-.06,2.24-.19c.5-.12.89-.29,1.18-.5h.25v4.6c.91-1.83,2.12-3.05,3.63-3.67,1.51-.62,3.41-.93,5.69-.93v5.72c-.58-.7-1.6-1.06-3.04-1.06Z"/><path class="l" d="M84.2,226.88v-.25c1.82-.62,2.73-2.53,2.73-5.72v-13.67h-21.75v13.67c0,3.23.85,5.14,2.55,5.72v.25h-11.43v-.25c1.74-.62,2.61-2.52,2.61-5.71v-26.68c0-.95-.05-1.91-.15-2.88-.11-.97-.22-1.69-.34-2.14-.29-1.03-.99-1.78-2.11-2.23l11.43-.12c-1.08.66-1.77,1.51-2.08,2.54-.31,1.03-.46,2.72-.46,5.08v8.48h21.75v-9.1c0-1.69-.15-3.13-.46-4.3-.31-1.18-1.07-2.03-2.27-2.57l11.56-.12c-.99.54-1.7,1.3-2.11,2.29-.37,1.08-.56,2.65-.56,4.72v27.05c0,3.18.89,5.09,2.67,5.71v.25h-11.56Z"/><path class="l" d="M128.94,218.47c-.83,1.84-1.97,3.43-3.42,4.75-1.62,1.49-3.31,2.57-5.1,3.23-1.82.79-3.79,1.18-5.9,1.18-.46,0-.88-.01-1.27-.03-.39-.02-1.09-.12-2.08-.28-.99-.17-2.03-.48-3.11-.93-2.07-.87-3.72-1.97-4.94-3.29-1.22-1.33-2.19-2.91-2.89-4.75-.71-1.84-1.06-3.66-1.06-5.44,0-1.37.15-2.59.46-3.67.31-1.08.76-2.21,1.34-3.42,1.16-2.2,2.94-4.02,5.35-5.47.58-.37,1.23-.7,1.96-.99.72-.29,1.4-.54,2.02-.75,1.45-.37,3.04-.56,4.79-.56,2.48,0,4.9.59,7.24,1.77s4.24,2.87,5.69,5.06c1.45,2.2,2.18,4.79,2.18,7.77,0,2.03-.41,3.97-1.24,5.81ZM123.35,209.3l-.87-2.05-1.06-1.68c-.79-.99-1.8-1.86-3.04-2.61-1.2-.62-2.53-.93-3.98-.93-1.2,0-2.49.32-3.85.96-1.37.64-2.58,1.72-3.63,3.23-1.06,1.51-1.59,3.49-1.59,5.93,0,3.11.89,5.8,2.67,8.08,1.78,2.28,4.1,3.42,6.96,3.42,1.95,0,3.62-.52,5.03-1.55,1.41-.95,2.4-2.17,2.98-3.67.66-1.37.99-3,.99-4.91,0-1.57-.21-2.98-.62-4.23Z"/><path class="l" d="M142.74,226.51c-.66.75-1.53,1.12-2.61,1.12-.54,0-1.04-.12-1.49-.34-.46-.23-.85-.51-1.18-.84-.33-.33-.6-.72-.81-1.18-.21-.46-.31-.91-.31-1.37,0-1.08.36-1.98,1.09-2.7.72-.72,1.62-1.09,2.7-1.09.95,0,1.79.36,2.52,1.09s1.09,1.63,1.09,2.7c0,.99-.33,1.86-.99,2.61Z"/><path class="l" d="M171.63,226.88v-3.98c-1.23,2.03-2.58,3.32-4.04,3.88-1.46.56-3.04.84-4.72.84-6.88,0-10.31-4.02-10.31-12.06v-12.61c0-1.78-.79-3.09-2.36-3.92v-.25l3.11.12c1.24,0,2.19-.06,2.83-.19.64-.12,1.21-.35,1.71-.68v16.34c0,2.94.58,5.12,1.74,6.52,1.16,1.41,2.84,2.11,5.03,2.11,1.9,0,3.54-.7,4.91-2.11,1.41-1.37,2.11-3.46,2.11-6.28v-10.5c0-1.37-.12-2.42-.37-3.17-.29-.66-.93-1.3-1.93-1.93v-.25l4.6.12c1.2,0,2.22-.29,3.04-.87v22.87c0,1.74.15,2.98.45,3.73.3.75.96,1.41,1.98,1.99v.25h-7.77Z"/><path class="l" d="M203.04,223.38c-1.35,1.46-3.07,2.53-5.16,3.22s-4.15,1.03-6.18,1.03c-2.9,0-5.59-.5-8.08-1.49l-1.93-5.9c1.37,1.04,3.11,1.86,5.22,2.49l2.98.62c1.16.21,2.09.31,2.79.31,1.12,0,1.99-.08,2.61-.25l2.24-.75c1.24-.62,1.93-1.52,2.05-2.68,0-1.17-.45-2.11-1.34-2.84-.89-.73-2.06-1.36-3.51-1.91l-4.78-1.75c-2.24-.87-3.93-1.83-5.06-2.87-1.14-1.04-1.71-2.54-1.71-4.5s.57-3.65,1.71-4.84c1.14-1.19,2.66-2.05,4.57-2.59l2.98-.62h2.86c2.61,0,4.79.25,6.52.75v5.22c-2.2-1.33-4.74-1.99-7.64-1.99-1.74,0-3.09.28-4.04.84-.95.56-1.43,1.32-1.43,2.28,0,.29.1.6.31.94s.52.62.93.87c.33.29.77.54,1.3.75.54.29,1.06.52,1.55.69l3.98,1.37,1.68.62,1.93.81c1.49.71,2.64,1.65,3.45,2.84.81,1.19,1.21,2.51,1.21,3.97,0,2.12-.67,3.91-2.02,5.37Z"/><path class="m" d="M103.22,103.8s-9.49,23.6-33.11,22.31l33.26,50.97,32.75-51.04c-8.02-.73-24.08-.73-32.9-22.24Z"/><path class="k" d="M33.81,95.24c1.76,18.83,31.76,20.26,31.76,20.26,9.49.2,25.65.54,37.54-27.08,11.92,27.63,28.03,27.26,37.54,27.08,0,0,30-1.43,31.76-20.26,0,0-.28.05-.96.22.02-.05,0,0,0,0-14.37,2.15-25.73-2.03-37.38-10.18,15.9,5.33,53.32,1.67,54.29-21.43,0,0-.01,0-.02,0,0-.15.02-.29.02-.43,0,0-3.76.54-9.81.12C132.84,57.1,116.07,29.06,103.12,0c-11.45,29.89-39.34,65.72-85.26,63.41,0,.15.01.29.02.43,0,0-.01,0-.02,0,.97,23.1,38.39,26.76,54.29,21.43-11.66,8.16-23.96,12.11-38.34,9.96Z"/><path class="f" d="M147.51,87.36l-3.79,3.65c6.45,3.18,13.08,4.97,20.44,4.98l4.69-4.63c2.85-2.87,5.12-6.11,6.83-9.56-8.14,4.25-18.86,5.87-28.17,5.57Z"/><path class="g" d="M137.72,48.01c1.99-.76,4.08-1.17,6.19-1.26-.25,0-.49-.04-.74-.04h1.5c-.25,0-.5.03-.76.04,4.52.18,9.01,1.99,12.47,5.47h0c2.11,2.12,3.58,4.63,4.47,7.3,5.39,1.72,11.27,3.08,17.75,3.99.28.02.55.03.82.05-.46-8.69-3.98-17.26-10.56-23.87h0c-7.05-7.08-16.36-10.63-25.68-10.64h-.02s-.03,0-.03,0c-6.82,0-13.64,1.92-19.56,5.71,4.09,4.85,8.75,9.32,14.17,13.25Z"/><path class="j" d="M143.83,90.91l-.14.13c1.51,4.43,2.51,9.06,2.51,13.85,0,3.4-.4,6.76-1.17,10.01l19.24-19.01c-7.36,0-14-1.8-20.44-4.98Z"/><path class="j" d="M95.82,101.52c-.63-1.9-.97-3.87-.97-5.84v-.05c0-4.79,1.87-9.61,5.6-13.27l30.69-30.13c1.93-1.9,4.18-3.29,6.57-4.21-5.42-3.93-10.07-8.4-14.17-13.25-2.17,1.39-4.23,3.03-6.12,4.93l-29.99,30.13c-7.05,7.08-10.58,16.44-10.59,25.81v.05c0,6.08,1.54,12.15,4.58,17.6,4.74-1.91,9.69-5.4,14.38-11.76Z"/><path class="h" d="M72.46,155.29c-4.81,0-9.61-1.82-13.25-5.46h0c-3.64-3.64-5.46-8.41-5.48-13.17,0,.02,0,.04,0,.06v-.12s0,.04,0,.06c.02-4.8,1.86-9.62,5.53-13.29l7.79-7.79c-.54,0-1.07-.02-1.57-.03,0,0-10.23-.49-19.09-4.65-7.06,7.12-10.62,16.49-10.66,25.89.05,9.34,3.59,18.65,10.65,25.71h0c7.12,7.12,16.49,10.68,25.86,10.68,8.2,0,16.41-2.73,23.11-8.19l-9.8-15.02c-3.62,3.54-8.35,5.31-13.09,5.31Z"/><path class="j" d="M128.27,132.34c1.99-1.99,3.69-4.17,5.12-6.46-4.96-.42-11.7-1.25-18.04-5.69l-29.64,29.64c-.05.05-.11.09-.16.14l9.8,15.02c.95-.77,1.87-1.6,2.75-2.49l30.17-30.17Z"/><path class="i" d="M128.27,80.62h0c-4.27-4.1-7.19-4.74-10.97-6.48l-13.51,13.51c-.26.27-.52.54-.75.83,4.41.27,8.76.15,12.69,4.69v.15c3.64,3.64,5.46,8.44,5.46,13.25,0,1.58-.22,3.16-.61,4.7,6.23,3.79,12.33,4.31,17.23,4.32.76-2.99,1.15-6.05,1.15-9.11,0-9.37-3.56-18.74-10.68-25.86Z"/><path class="i" d="M70.72,95.64v-.18c.03-3.41.44-6.78,1.22-10.05-.06.04-.12.08-.19.13l-25.26,25.26s-.07.08-.11.11c8.86,4.15,19.09,4.65,19.09,4.65.5.01,1.03.02,1.57.03l5.98-5.98c-1.52-4.45-2.3-9.17-2.3-13.97Z"/></g></svg>